<?xml version="1.0" encoding="UTF-8" standalone="no"?>
<!-- Created with Inkscape (http://www.inkscape.org/) -->
<svg id="svg2" xmlns:rdf="http://www.w3.org/1999/02/22-rdf-syntax-ns#" xmlns="http://www.w3.org/2000/svg" height="758.99" width="1e3" version="1.1" xmlns:cc="http://creativecommons.org/ns#" xmlns:dc="http://purl.org/dc/elements/1.1/">
 <metadata id="metadata2892">
  <rdf:RDF>
   <cc:Work rdf:about="">
    <dc:format>image/svg+xml</dc:format>
    <dc:type rdf:resource="http://purl.org/dc/dcmitype/StillImage"/>
   </cc:Work>
  </rdf:RDF>
 </metadata>
 <path id="path4061" style="color:#000000" d="m1e3 325.9h-363.74v-93.1h363.74v93.1z" fill="#e669a2"/>
 <path id="path4103" style="color:#000000" d="m952.76 325.9h-316.49v-232.85h316.49v232.85z" fill="#f3be26"/>
 <path id="path4089" style="color:#000000" d="m822 325.9h-185.73v-325.9h185.73v325.9z" fill="#ee9c34"/>
 <path id="path4075" style="color:#000000" d="m858.54 325.9h-222.27v-289.54h222.27v289.54z" fill="#f3bc87"/>
 <path id="path4688" style="color:#000000" d="m636.21 36.421v289.45h185.76v-289.45h-185.76z" fill="#e3721c"/>
 <path id="path4119" style="color:#000000" d="m450.02 325.9h186.25v46.555h-186.25v-46.555z" fill="#ad1b02"/>
 <path id="path4698" style="color:#000000" d="m636.21 93v232.87h222.43v-232.87h-222.43z" fill="#e88d14"/>
 <path id="path4693" style="color:#000000" d="m636.21 93v232.87h185.76v-232.87h-185.76z" fill="#d85604"/>
 <path id="path4117" style="color:#000000" d="m752.41 325.9h-116.15v-139.76h116.15v139.76z" fill="#c14303"/>
 <path id="path4713" style="color:#000000" d="m636.21 232.87v93.004h316.65v-93.004h-316.65z" fill="#db4e18"/>
 <path id="path4708" style="color:#000000" d="m636.21 232.87v93.004h222.43v-93.004h-222.43z" fill="#d1390d"/>
 <path id="path4703" style="color:#000000" d="m636.21 232.87v93.004h185.76v-93.004h-185.76z" fill="#c22303"/>
 <path id="path4625" style="color:#000000" d="m636.21 232.87v93.004h116.32v-93.004h-116.32z" fill="#ad1b02"/>
 <g id="g2925" transform="translate(-128.5 323.79)">
  <path id="path2850" d="m805.26 177.46c-31.69 5.6338-48.592 29.577-48.592 71.127 0 42.254 22.535 70.423 55.634 70.423 16.197 0 30.282-5.6338 59.859-20.423v34.507c-35.915 16.901-57.042 21.127-85.211 21.127-31.69 0-54.225-7.7465-71.831-26.761-18.31-18.31-28.169-42.254-28.169-69.718 0-59.859 45.07-101.41 110.56-101.41 42.958 0 73.239 20.423 73.239 49.296 0 19.014-14.085 32.394-34.507 32.394-10.563 0-19.014-3.5211-30.986-9.8592"/>
  <path id="path2852" d="m646.81 257.74c28.873-35.915 39.437-50.704 39.437-68.31s-14.085-33.099-33.803-33.099c-11.268 0-21.831 6.338-26.761 11.972v73.944c-47.183 63.38-47.183 63.38-47.183 63.38v-143.66h-45.07l-74.648 123.24v-123.24h-25.352l-68.31 15.493v17.606l37.324 3.5211v152.82h47.183l71.831-118.31v118.31h52.817"/>
  <path id="path2862" d="m222.16 327.46h10.563c38.028 0 59.155-23.239 59.155-69.718 0-38.732-16.901-59.859-48.592-59.859-4.2254 0-10.563 0.70422-21.127 2.8169v126.76zm0 83.099c30.986 7.0423 30.986 7.0423 30.986 7.0423v17.606h-121.83v-17.606c28.169-7.0423 28.169-7.0423 28.169-7.0423v-212.68h-30.986v-17.606l73.944-22.535h19.718v25.352c34.507-21.127 46.479-24.648 64.789-24.648 40.845 0 71.831 38.028 71.831 90.845 0 60.563-41.549 102.11-104.93 102.11-7.0422 0-19.014-0.70422-31.69-1.4084"/>
 </g>
</svg>
